<svg width="21" height="23" viewBox="0 0 21 23" fill="none" xmlns="http://www.w3.org/2000/svg">
<g id="icon">
<path id="Vector" d="M8.33704 1.43721C8.51135 1.01257 8.81035 0.648916 9.19571 0.392857C9.58108 0.136797 10.0352 0 10.5 0C10.9648 0 11.4189 0.136797 11.8043 0.392857C12.1897 0.648916 12.4887 1.01257 12.663 1.43721C14.3881 1.90484 15.9099 2.91774 16.9945 4.32034C18.079 5.72294 18.6665 7.43767 18.6665 9.20119V14.6022L20.8038 17.762C20.9211 17.9352 20.9884 18.1365 20.9986 18.3444C21.0089 18.5524 20.9617 18.7591 20.862 18.9427C20.7624 19.1263 20.614 19.2797 20.4328 19.3867C20.2517 19.4936 20.0444 19.5501 19.8332 19.5501H14.5424C14.402 20.5081 13.916 21.3841 13.1736 22.0177C12.4312 22.6513 11.482 23 10.5 23C9.51796 23 8.5688 22.6513 7.82639 22.0177C7.08398 21.3841 6.59804 20.5081 6.45757 19.5501H1.16682C0.955609 19.5501 0.748349 19.4936 0.567155 19.3867C0.38596 19.2797 0.237629 19.1263 0.137986 18.9427C0.038343 18.7591 -0.00887323 18.5524 0.00137413 18.3444C0.0116215 18.1365 0.0789481 17.9352 0.196171 17.762L2.33347 14.6022V9.20119C2.33347 5.49398 4.87676 2.37091 8.33704 1.43721ZM8.85036 19.5501C8.97085 19.8866 9.19427 20.178 9.48983 20.3841C9.78539 20.5902 10.1385 20.7009 10.5006 20.7009C10.8626 20.7009 11.2158 20.5902 11.5113 20.3841C11.8069 20.178 12.0303 19.8866 12.1508 19.5501H8.84919H8.85036ZM10.5 3.4518C8.95293 3.4518 7.46922 4.05753 6.37528 5.13575C5.28134 6.21398 4.66676 7.67636 4.66676 9.20119V14.9506C4.66682 15.1777 4.59862 15.3998 4.47077 15.5888L3.34729 17.2503H17.6515L16.5281 15.5888C16.4006 15.3997 16.3328 15.1776 16.3332 14.9506V9.20119C16.3332 7.67636 15.7187 6.21398 14.6247 5.13575C13.5308 4.05753 12.0471 3.4518 10.5 3.4518Z" fill="white"/>
</g>
</svg>
