<svg width="22" height="21" viewBox="0 0 22 21" fill="none" xmlns="http://www.w3.org/2000/svg">
<g id="icon">
<path id="feSearch2" fill-rule="evenodd" clip-rule="evenodd" d="M15.3748 13.5434L21.0236 19.1923C21.2221 19.391 21.3336 19.6604 21.3335 19.9413C21.3334 20.2222 21.2217 20.4915 21.023 20.6901C20.8244 20.8886 20.5549 21.0001 20.2741 21C19.9932 20.9999 19.7238 20.8882 19.5253 20.6895L13.8765 15.0407C12.1879 16.3486 10.0645 16.9641 7.93816 16.7619C5.81185 16.5598 3.84241 15.5552 2.43049 13.9525C1.01856 12.3498 0.270221 10.2694 0.337692 8.13448C0.405163 5.9996 1.28338 3.9706 2.79369 2.46025C4.304 0.949909 6.33294 0.0716691 8.46777 0.00419605C10.6026 -0.063277 12.683 0.685086 14.2856 2.09704C15.8883 3.509 16.8929 5.47849 17.095 7.60485C17.2972 9.73121 16.6817 11.8547 15.3738 13.5434H15.3748ZM8.73389 14.6994C10.4047 14.6994 12.007 14.0357 13.1885 12.8542C14.3699 11.6728 15.0336 10.0704 15.0336 8.39955C15.0336 6.72872 14.3699 5.12633 13.1885 3.94487C12.007 2.76342 10.4047 2.09969 8.73389 2.09969C7.0631 2.09969 5.46075 2.76342 4.27932 3.94487C3.0979 5.12633 2.43418 6.72872 2.43418 8.39955C2.43418 10.0704 3.0979 11.6728 4.27932 12.8542C5.46075 14.0357 7.0631 14.6994 8.73389 14.6994Z" fill="white"/>
</g>
</svg>
